<?xml version="1.0" standalone="no"?>
<!DOCTYPE svg PUBLIC "-//W3C//DTD SVG 20010904//EN"
 "http://www.w3.org/TR/2001/REC-SVG-20010904/DTD/svg10.dtd">
<svg version="1.0" xmlns="http://www.w3.org/2000/svg"
 width="300.000000pt" height="300.000000pt" viewBox="0 0 300.000000 300.000000"
 preserveAspectRatio="xMidYMid meet">
<metadata>
Created by potrace 1.11, written by Peter Selinger 2001-2013
</metadata>
<g transform="translate(0.000000,300.000000) scale(0.100000,-0.100000)"
fill="#000000" stroke="none">
<path d="M0 2640 c0 -198 3 -360 6 -360 4 0 215 182 351 303 13 11 25 18 29
15 3 -3 1 -32 -5 -65 -13 -69 -74 -197 -131 -271 -22 -29 -40 -56 -40 -61 0
-4 18 -29 40 -54 92 -104 338 -232 672 -351 153 -54 427 -136 455 -136 13 0
42 24 78 68 117 135 194 277 221 405 9 40 18 79 20 87 18 55 34 -134 47 -565
l2 -80 64 80 c188 234 335 527 406 803 31 125 55 283 55 375 0 37 4 67 8 67
12 0 78 -174 102 -268 71 -282 69 -623 -6 -990 -61 -297 -210 -718 -347 -977
l-42 -80 -85 -22 c-582 -154 -1096 -203 -1332 -127 -60 20 -95 12 -145 -31
-63 -54 -142 -227 -167 -367 l-7 -38 1376 0 1375 0 0 1500 0 1500 -1500 0
-1500 0 0 -360z"/>
<path d="M1173 1417 c-67 -23 -125 -45 -128 -49 -11 -11 31 -73 60 -88 63 -34
175 4 201 67 15 34 11 114 -4 112 -4 0 -62 -19 -129 -42z"/>
</g>
</svg>
